<?xml version="1.0"?>
<svg width="31" height="16" xmlns="http://www.w3.org/2000/svg" xmlns:svg="http://www.w3.org/2000/svg">
 <defs>
  <clipPath id="clip0_1111_252">
   <rect fill="white" height="16" id="svg_1" width="31"/>
  </clipPath>
  <clipPath id="clip1_1111_252">
   <rect fill="white" height="17" id="svg_2" transform="translate(0 -1)" width="31"/>
  </clipPath>
 </defs>
 <g class="layer">
  <title>Layer 1</title>
  <g clip-path="url(#clip0_1111_252)" id="svg_3">
   <g clip-path="url(#clip1_1111_252)" id="svg_4">
    <path d="m19.96,13.83c-2.57,0.51 -7.13,-1.28 -7.13,-1.28c0.39,-0.29 5.15,-3.82 16.39,-8.36c0.01,0 0.03,-0.01 0.04,-0.01c0.38,-0.15 0.88,-1.02 0.89,-1.51c0,0 -3.98,0.36 -7.5,2.15c-4.74,2.23 -12.73,7.86 -12.73,7.86c0,0 0.58,0.39 1.1,0.61c3.86,1.67 9.5,2.7 10.6,2.34c2.97,-0.95 6.29,-7.18 7.33,-10.05c0,0 -3.12,1.22 -6.28,2.7c-2.64,1.22 -4.25,2.01 -5.01,2.38c-0.07,0.04 -0.13,0.06 -0.15,0.07l0.13,-0.06c-0.34,0.18 -0.5,0.25 -0.5,0.25l8.98,-2.69l-1.62,0.49c0,0 -1.97,4.59 -4.54,5.11l0,0zm6.13,-5.49l0.07,-0.13c0.01,0 -0.02,0.06 -0.07,0.13zm-8.58,2.38l-0.01,0.01l0.01,-0.01z" fill="#bfbfbf" id="svg_5"/>
    <path d="m11.39,16c0,0 -0.03,-0.03 -0.08,-0.09c-0.36,-0.39 -1.85,-1.99 -2.34,-2.92c-0.3,-0.55 0.06,-1.28 2.47,-3.04c2.17,-1.6 9.98,-8.09 17.46,-9.84c0,0 -3.91,-0.63 -9.52,1.11c-1.99,0.61 -4.93,3.38 -10.31,8.6c-0.74,0.4 -3.36,-1.09 -4.87,-1.81c0,0 2.51,3.92 3.39,5.09c1.35,1.85 3.8,2.9 3.8,2.9l0,0zm-5.16,-3.62c0.03,0.01 0.05,0.02 0.05,0.02c-0.01,0 -0.01,-0.01 -0.02,-0.02l0.02,0c-2.06,-1.43 -6.28,-5.33 -6.28,-5.33c0,0 0,0.01 0.01,0.01l-0.01,0l0.01,0.01c0.09,0.23 0.89,2.31 1.71,3.36c0.79,1.04 4.04,1.84 4.51,1.95l0,0z" fill="#bfbfbf" id="svg_6"/>
   </g>
  </g>
 </g>
</svg>